<?xml version="1.0" encoding="UTF-8" standalone="no"?>
<!DOCTYPE svg PUBLIC "-//W3C//DTD SVG 1.1//EN"
 "http://www.w3.org/Graphics/SVG/1.1/DTD/svg11.dtd">
<!-- Generated by graphviz version 2.43.0 (0)
 -->
<!-- Title: %3 Pages: 1 -->
<svg width="479pt" height="263pt"
 viewBox="0.00 0.00 479.00 263.00" xmlns="http://www.w3.org/2000/svg" xmlns:xlink="http://www.w3.org/1999/xlink">
<g id="graph0" class="graph" transform="scale(1 1) rotate(0) translate(4 259)">
<title>%3</title>
<!-- F -->
<g id="node1" class="node">
<title>F</title>
<polygon fill="aliceblue" stroke="black" points="92,-156.5 0,-156.5 0,-98.5 98,-98.5 98,-150.5 92,-156.5"/>
<polyline fill="none" stroke="black" points="92,-156.5 92,-150.5 "/>
<polyline fill="none" stroke="black" points="98,-150.5 92,-150.5 "/>
<text text-anchor="start" x="8" y="-143.1" font-family="Lato" font-size="13.00">Código fuente</text>
<text text-anchor="start" x="36" y="-130.1" font-family="Lato" font-size="13.00">(</text>
<text text-anchor="start" x="40" y="-130.1" font-family="Lato" font-style="italic" font-size="13.00">ZIL</text>
<text text-anchor="start" x="58" y="-130.1" font-family="Lato" font-size="13.00">)</text>
<text text-anchor="start" x="11.5" y="-105.7" font-family="monospace" font-size="11.00">archivo.zil</text>
</g>
<!-- Zilch -->
<g id="node3" class="node">
<title>Zilch</title>
<polygon fill="white" stroke="black" points="217,-151 134,-151 134,-104 217,-104 217,-151"/>
<text text-anchor="start" x="142" y="-137.6" font-family="Lato" font-size="13.00">Compilador</text>
<text text-anchor="start" x="162" y="-111.6" font-family="Lato" font-style="italic" font-size="13.00">Zilch</text>
</g>
<!-- F&#45;&gt;Zilch -->
<g id="edge1" class="edge">
<title>F&#45;&gt;Zilch</title>
<path fill="none" stroke="black" d="M98.13,-127.5C106.5,-127.5 115.23,-127.5 123.67,-127.5"/>
<polygon fill="black" stroke="black" points="123.77,-131 133.77,-127.5 123.77,-124 123.77,-131"/>
</g>
<!-- O -->
<g id="node2" class="node">
<title>O</title>
<polygon fill="aliceblue" stroke="black" points="344,-156.5 253,-156.5 253,-98.5 350,-98.5 350,-150.5 344,-156.5"/>
<polyline fill="none" stroke="black" points="344,-156.5 344,-150.5 "/>
<polyline fill="none" stroke="black" points="350,-150.5 344,-150.5 "/>
<text text-anchor="start" x="261" y="-143.1" font-family="Lato" font-size="13.00">Código objeto</text>
<text text-anchor="start" x="279" y="-130.1" font-family="Lato" font-size="13.00">(</text>
<text text-anchor="start" x="283" y="-130.1" font-family="Lato" font-style="italic" font-size="13.00">Z&#45;code</text>
<text text-anchor="start" x="320" y="-130.1" font-family="Lato" font-size="13.00">)</text>
<text text-anchor="start" x="267.5" y="-105.7" font-family="monospace" font-size="11.00">archivo.z5</text>
</g>
<!-- ZIP1 -->
<g id="node4" class="node">
<title>ZIP1</title>
<polygon fill="white" stroke="black" points="470.5,-255 386.5,-255 386.5,-182 470.5,-182 470.5,-255"/>
<text text-anchor="start" x="401.5" y="-241.6" font-family="Lato" font-style="italic" font-size="13.00">Intérprete</text>
<text text-anchor="start" x="419" y="-215.6" font-family="Lato" font-style="italic" font-size="13.00">ZIP</text>
<text text-anchor="start" x="394.5" y="-189.6" font-family="Lato" font-style="italic" font-size="13.00">para TRS&#45;80</text>
</g>
<!-- O&#45;&gt;ZIP1 -->
<g id="edge3" class="edge">
<title>O&#45;&gt;ZIP1</title>
<path fill="none" stroke="black" d="M342.39,-156.54C353.77,-164.83 366.31,-173.95 378.18,-182.59"/>
<polygon fill="black" stroke="black" points="376.12,-185.42 386.26,-188.48 380.24,-179.77 376.12,-185.42"/>
</g>
<!-- ZIP2 -->
<g id="node5" class="node">
<title>ZIP2</title>
<polygon fill="white" stroke="black" points="463.5,-164 393.5,-164 393.5,-91 463.5,-91 463.5,-164"/>
<text text-anchor="start" x="401.5" y="-150.6" font-family="Lato" font-style="italic" font-size="13.00">Intérprete</text>
<text text-anchor="start" x="419" y="-124.6" font-family="Lato" font-style="italic" font-size="13.00">ZIP</text>
<text text-anchor="start" x="403.5" y="-98.6" font-family="Lato" font-style="italic" font-size="13.00">para IBM</text>
</g>
<!-- O&#45;&gt;ZIP2 -->
<g id="edge4" class="edge">
<title>O&#45;&gt;ZIP2</title>
<path fill="none" stroke="black" d="M350.11,-127.5C360.88,-127.5 372.27,-127.5 382.9,-127.5"/>
<polygon fill="black" stroke="black" points="383.23,-131 393.23,-127.5 383.23,-124 383.23,-131"/>
</g>
<!-- ZIP3 -->
<g id="node6" class="node">
<title>ZIP3</title>
<polygon fill="white" stroke="black" points="471,-73 386,-73 386,0 471,0 471,-73"/>
<text text-anchor="start" x="401.5" y="-59.6" font-family="Lato" font-style="italic" font-size="13.00">Intérprete</text>
<text text-anchor="start" x="419" y="-33.6" font-family="Lato" font-style="italic" font-size="13.00">ZIP</text>
<text text-anchor="start" x="394" y="-7.6" font-family="Lato" font-style="italic" font-size="13.00">para Apple II</text>
</g>
<!-- O&#45;&gt;ZIP3 -->
<g id="edge5" class="edge">
<title>O&#45;&gt;ZIP3</title>
<path fill="none" stroke="black" d="M342.39,-98.46C353.55,-90.34 365.81,-81.41 377.47,-72.92"/>
<polygon fill="black" stroke="black" points="379.81,-75.55 385.83,-66.83 375.69,-69.89 379.81,-75.55"/>
</g>
<!-- Zilch&#45;&gt;O -->
<g id="edge2" class="edge">
<title>Zilch&#45;&gt;O</title>
<path fill="none" stroke="black" d="M217.1,-127.5C225.33,-127.5 234.12,-127.5 242.81,-127.5"/>
<polygon fill="black" stroke="black" points="242.91,-131 252.91,-127.5 242.91,-124 242.91,-131"/>
</g>
</g>
</svg>
